<mxfile host="app.diagrams.net" agent="Mozilla/5.0 (Windows NT 10.0; Win64; x64) AppleWebKit/537.36 (KHTML, like Gecko) Chrome/132.0.0.0 Safari/537.36" version="26.0.6">
  <diagram name="PÃ¡gina-1" id="jy76suaO5ztCNSPQmPkC">
    <mxGraphModel dx="1674" dy="738" grid="1" gridSize="10" guides="1" tooltips="1" connect="1" arrows="1" fold="1" page="1" pageScale="1" pageWidth="827" pageHeight="1169" math="0" shadow="0">
      <root>
        <mxCell id="0" />
        <mxCell id="1" parent="0" />
        <mxCell id="M6oxPB0LN4e3J99zhPgf-10" value="" style="rounded=0;whiteSpace=wrap;html=1;strokeColor=#7EA6E0;shadow=1;strokeWidth=3;" vertex="1" parent="1">
          <mxGeometry x="240" y="74.13" width="160" height="115.87" as="geometry" />
        </mxCell>
        <mxCell id="M6oxPB0LN4e3J99zhPgf-9" value="" style="rounded=0;whiteSpace=wrap;html=1;strokeColor=#82B366;shadow=1;strokeWidth=3;" vertex="1" parent="1">
          <mxGeometry x="50" y="74.13" width="120" height="115.87" as="geometry" />
        </mxCell>
        <mxCell id="M6oxPB0LN4e3J99zhPgf-4" value="" style="image;sketch=0;aspect=fixed;html=1;points=[];align=center;fontSize=12;image=img/lib/mscae/Data_Factory.svg;" vertex="1" parent="1">
          <mxGeometry x="260" y="94" width="50" height="50" as="geometry" />
        </mxCell>
        <mxCell id="M6oxPB0LN4e3J99zhPgf-5" value="" style="image;aspect=fixed;html=1;points=[];align=center;fontSize=12;image=img/lib/azure2/analytics/Azure_Databricks.svg;" vertex="1" parent="1">
          <mxGeometry x="330" y="91.5" width="50.79" height="55" as="geometry" />
        </mxCell>
        <mxCell id="M6oxPB0LN4e3J99zhPgf-6" value="" style="image;sketch=0;aspect=fixed;html=1;points=[];align=center;fontSize=12;image=img/lib/mscae/BlobBlock.svg;" vertex="1" parent="1">
          <mxGeometry x="85" y="101.07" width="50" height="42" as="geometry" />
        </mxCell>
        <mxCell id="M6oxPB0LN4e3J99zhPgf-8" value="" style="shape=mxgraph.signs.nature.snowflake;html=1;pointerEvents=1;fillColor=#000000;strokeColor=none;verticalLabelPosition=bottom;verticalAlign=top;align=center;" vertex="1" parent="1">
          <mxGeometry x="470" y="90.25" width="50" height="69.75" as="geometry" />
        </mxCell>
        <mxCell id="M6oxPB0LN4e3J99zhPgf-13" value="" style="shape=flexArrow;endArrow=classic;html=1;rounded=0;shadow=1;strokeColor=#FF8000;" edge="1" parent="1">
          <mxGeometry width="50" height="50" relative="1" as="geometry">
            <mxPoint x="414" y="124.63" as="sourcePoint" />
            <mxPoint x="454" y="124.63" as="targetPoint" />
          </mxGeometry>
        </mxCell>
        <mxCell id="M6oxPB0LN4e3J99zhPgf-14" value="" style="shape=flexArrow;endArrow=classic;html=1;rounded=0;shadow=1;strokeColor=#FF8000;" edge="1" parent="1">
          <mxGeometry width="50" height="50" relative="1" as="geometry">
            <mxPoint x="190" y="121.57" as="sourcePoint" />
            <mxPoint x="230" y="121.57" as="targetPoint" />
          </mxGeometry>
        </mxCell>
        <mxCell id="M6oxPB0LN4e3J99zhPgf-16" value="Azure Storage" style="text;html=1;align=center;verticalAlign=middle;whiteSpace=wrap;rounded=0;" vertex="1" parent="1">
          <mxGeometry x="65" y="150" width="90" height="30" as="geometry" />
        </mxCell>
        <mxCell id="M6oxPB0LN4e3J99zhPgf-17" value="FUENTE DE DATOS" style="text;html=1;align=center;verticalAlign=middle;whiteSpace=wrap;rounded=0;" vertex="1" parent="1">
          <mxGeometry x="50" y="44.13" width="120" height="30" as="geometry" />
        </mxCell>
        <mxCell id="M6oxPB0LN4e3J99zhPgf-18" value="&lt;font style=&quot;font-size: 10px;&quot;&gt;Data Factory&lt;/font&gt;" style="text;html=1;align=center;verticalAlign=middle;whiteSpace=wrap;rounded=0;" vertex="1" parent="1">
          <mxGeometry x="240" y="143.07" width="90" height="30" as="geometry" />
        </mxCell>
        <mxCell id="M6oxPB0LN4e3J99zhPgf-19" value="&lt;font style=&quot;font-size: 10px;&quot;&gt;Databricks&lt;/font&gt;" style="text;html=1;align=center;verticalAlign=middle;whiteSpace=wrap;rounded=0;" vertex="1" parent="1">
          <mxGeometry x="310" y="144" width="90" height="30" as="geometry" />
        </mxCell>
        <mxCell id="M6oxPB0LN4e3J99zhPgf-20" value="&lt;font style=&quot;font-size: 10px;&quot;&gt;Snowflake&lt;/font&gt;" style="text;html=1;align=center;verticalAlign=middle;whiteSpace=wrap;rounded=0;" vertex="1" parent="1">
          <mxGeometry x="450" y="160" width="90" height="30" as="geometry" />
        </mxCell>
      </root>
    </mxGraphModel>
  </diagram>
</mxfile>
